<mxfile host="app.diagrams.net" modified="2021-07-28T16:13:32.360Z" agent="5.0 (Windows NT 10.0; Win64; x64) AppleWebKit/537.36 (KHTML, like Gecko) Chrome/92.0.4515.107 Safari/537.36" etag="0tZa4W0FltVwSe8oW_Wo" version="14.9.2" type="github">
  <diagram id="Jy8lC7KFsK3_pHXgBaOn" name="Page-1">
    <mxGraphModel dx="1422" dy="794" grid="1" gridSize="10" guides="1" tooltips="1" connect="1" arrows="1" fold="1" page="1" pageScale="1" pageWidth="827" pageHeight="1169" math="0" shadow="0">
      <root>
        <mxCell id="0" />
        <mxCell id="1" parent="0" />
        <mxCell id="D48NL7E5U6qCPE2b7N9N-1" value="" style="endArrow=none;dashed=1;html=1;" parent="1" edge="1">
          <mxGeometry width="50" height="50" relative="1" as="geometry">
            <mxPoint x="4" y="200" as="sourcePoint" />
            <mxPoint x="1140" y="200" as="targetPoint" />
          </mxGeometry>
        </mxCell>
        <mxCell id="D48NL7E5U6qCPE2b7N9N-2" value="" style="endArrow=none;dashed=1;html=1;" parent="1" edge="1">
          <mxGeometry width="50" height="50" relative="1" as="geometry">
            <mxPoint x="4" y="400" as="sourcePoint" />
            <mxPoint x="1140" y="400" as="targetPoint" />
          </mxGeometry>
        </mxCell>
        <mxCell id="D48NL7E5U6qCPE2b7N9N-3" value="" style="endArrow=none;dashed=1;html=1;" parent="1" edge="1">
          <mxGeometry width="50" height="50" relative="1" as="geometry">
            <mxPoint x="4" y="600" as="sourcePoint" />
            <mxPoint x="1140" y="600" as="targetPoint" />
          </mxGeometry>
        </mxCell>
        <mxCell id="D48NL7E5U6qCPE2b7N9N-5" value="UI" style="text;html=1;strokeColor=none;fillColor=none;align=center;verticalAlign=middle;whiteSpace=wrap;rounded=0;rotation=-90;fontSize=17;" parent="1" vertex="1">
          <mxGeometry x="-10" y="90" width="40" height="20" as="geometry" />
        </mxCell>
        <mxCell id="D48NL7E5U6qCPE2b7N9N-6" value="&lt;div&gt;ViewModel&lt;/div&gt;" style="text;html=1;strokeColor=none;fillColor=none;align=center;verticalAlign=middle;whiteSpace=wrap;rounded=0;rotation=-90;fontSize=17;" parent="1" vertex="1">
          <mxGeometry x="-10" y="290" width="40" height="20" as="geometry" />
        </mxCell>
        <mxCell id="D48NL7E5U6qCPE2b7N9N-8" value="&lt;div&gt;Repository&lt;/div&gt;" style="text;html=1;strokeColor=none;fillColor=none;align=center;verticalAlign=middle;whiteSpace=wrap;rounded=0;rotation=-90;fontSize=17;" parent="1" vertex="1">
          <mxGeometry x="-10" y="490" width="40" height="20" as="geometry" />
        </mxCell>
        <mxCell id="D48NL7E5U6qCPE2b7N9N-10" value="&lt;div&gt;Data&lt;/div&gt;" style="text;html=1;strokeColor=none;fillColor=none;align=center;verticalAlign=middle;whiteSpace=wrap;rounded=0;rotation=-90;fontSize=17;" parent="1" vertex="1">
          <mxGeometry x="-10" y="690" width="40" height="20" as="geometry" />
        </mxCell>
        <mxCell id="D48NL7E5U6qCPE2b7N9N-12" value="" style="endArrow=none;dashed=1;html=1;" parent="1" edge="1">
          <mxGeometry width="50" height="50" relative="1" as="geometry">
            <mxPoint x="4" y="800" as="sourcePoint" />
            <mxPoint x="824" y="800" as="targetPoint" />
          </mxGeometry>
        </mxCell>
        <mxCell id="D48NL7E5U6qCPE2b7N9N-16" value="URI&lt;br&gt;SongInfo" style="edgeStyle=orthogonalEdgeStyle;rounded=0;orthogonalLoop=1;jettySize=auto;html=1;exitX=0.75;exitY=0;exitDx=0;exitDy=0;entryX=0.75;entryY=1;entryDx=0;entryDy=0;fontSize=11;strokeWidth=1;" parent="1" source="D48NL7E5U6qCPE2b7N9N-13" target="D48NL7E5U6qCPE2b7N9N-14" edge="1">
          <mxGeometry relative="1" as="geometry" />
        </mxCell>
        <mxCell id="D48NL7E5U6qCPE2b7N9N-13" value="MediaStore" style="rounded=0;whiteSpace=wrap;html=1;fontSize=17;" parent="1" vertex="1">
          <mxGeometry x="360" y="670" width="120" height="60" as="geometry" />
        </mxCell>
        <mxCell id="D48NL7E5U6qCPE2b7N9N-17" value="getInfo()&lt;br&gt;delete()&lt;br&gt;editInfo()" style="edgeStyle=orthogonalEdgeStyle;rounded=0;orthogonalLoop=1;jettySize=auto;html=1;exitX=0.25;exitY=1;exitDx=0;exitDy=0;entryX=0.25;entryY=0;entryDx=0;entryDy=0;fontSize=11;" parent="1" source="D48NL7E5U6qCPE2b7N9N-14" target="D48NL7E5U6qCPE2b7N9N-13" edge="1">
          <mxGeometry relative="1" as="geometry" />
        </mxCell>
        <mxCell id="D48NL7E5U6qCPE2b7N9N-28" value="URI&lt;br&gt;SongInfo" style="edgeStyle=orthogonalEdgeStyle;rounded=0;orthogonalLoop=1;jettySize=auto;html=1;exitX=0.75;exitY=0;exitDx=0;exitDy=0;entryX=0;entryY=0.75;entryDx=0;entryDy=0;fontSize=11;strokeWidth=1;" parent="1" source="D48NL7E5U6qCPE2b7N9N-14" target="D48NL7E5U6qCPE2b7N9N-24" edge="1">
          <mxGeometry relative="1" as="geometry" />
        </mxCell>
        <mxCell id="D48NL7E5U6qCPE2b7N9N-14" value="&lt;div&gt;File&lt;/div&gt;&lt;div&gt;Repository&lt;/div&gt;" style="rounded=0;whiteSpace=wrap;html=1;fontSize=17;" parent="1" vertex="1">
          <mxGeometry x="360" y="510" width="120" height="60" as="geometry" />
        </mxCell>
        <mxCell id="D48NL7E5U6qCPE2b7N9N-21" value="SongStats&lt;br&gt;NextSong" style="edgeStyle=orthogonalEdgeStyle;rounded=0;orthogonalLoop=1;jettySize=auto;html=1;exitX=0.75;exitY=0;exitDx=0;exitDy=0;entryX=0.75;entryY=1;entryDx=0;entryDy=0;fontSize=11;strokeWidth=1;" parent="1" source="D48NL7E5U6qCPE2b7N9N-18" target="D48NL7E5U6qCPE2b7N9N-19" edge="1">
          <mxGeometry relative="1" as="geometry" />
        </mxCell>
        <mxCell id="D48NL7E5U6qCPE2b7N9N-18" value="Room" style="rounded=0;whiteSpace=wrap;html=1;fontSize=17;" parent="1" vertex="1">
          <mxGeometry x="730" y="670" width="120" height="60" as="geometry" />
        </mxCell>
        <mxCell id="D48NL7E5U6qCPE2b7N9N-20" value="getNextSong()&lt;br&gt;add()&lt;br style=&quot;font-size: 11px&quot;&gt;delete()&lt;br style=&quot;font-size: 11px&quot;&gt;editStats()" style="edgeStyle=orthogonalEdgeStyle;rounded=0;orthogonalLoop=1;jettySize=auto;html=1;exitX=0.25;exitY=1;exitDx=0;exitDy=0;entryX=0.25;entryY=0;entryDx=0;entryDy=0;fontSize=11;strokeWidth=1;" parent="1" source="D48NL7E5U6qCPE2b7N9N-19" target="D48NL7E5U6qCPE2b7N9N-18" edge="1">
          <mxGeometry relative="1" as="geometry" />
        </mxCell>
        <mxCell id="rS-Z2TYhQK7uxSjzsnKh-34" value="SongStats&lt;br&gt;NextSong" style="edgeStyle=orthogonalEdgeStyle;rounded=0;orthogonalLoop=1;jettySize=auto;html=1;exitX=0.75;exitY=0;exitDx=0;exitDy=0;entryX=1;entryY=0.25;entryDx=0;entryDy=0;fontSize=11;" parent="1" source="D48NL7E5U6qCPE2b7N9N-19" target="D48NL7E5U6qCPE2b7N9N-24" edge="1">
          <mxGeometry x="-0.3061" relative="1" as="geometry">
            <mxPoint as="offset" />
          </mxGeometry>
        </mxCell>
        <mxCell id="D48NL7E5U6qCPE2b7N9N-19" value="&lt;div&gt;MusicStat&lt;/div&gt;&lt;div&gt;Repository&lt;/div&gt;" style="rounded=0;whiteSpace=wrap;html=1;fontSize=17;" parent="1" vertex="1">
          <mxGeometry x="730" y="510" width="120" height="60" as="geometry" />
        </mxCell>
        <mxCell id="D48NL7E5U6qCPE2b7N9N-27" value="getInfo()&lt;br&gt;delete()&lt;br style=&quot;font-size: 11px&quot;&gt;editInfo()" style="edgeStyle=orthogonalEdgeStyle;rounded=0;orthogonalLoop=1;jettySize=auto;html=1;exitX=0;exitY=0.25;exitDx=0;exitDy=0;entryX=0.317;entryY=-0.017;entryDx=0;entryDy=0;entryPerimeter=0;fontSize=11;strokeWidth=1;" parent="1" source="D48NL7E5U6qCPE2b7N9N-24" target="D48NL7E5U6qCPE2b7N9N-14" edge="1">
          <mxGeometry relative="1" as="geometry" />
        </mxCell>
        <mxCell id="D48NL7E5U6qCPE2b7N9N-29" value="getNextSong()&lt;br&gt;add()&lt;br style=&quot;font-size: 11px&quot;&gt;delete()&lt;br&gt;editStats()" style="rounded=0;orthogonalLoop=1;jettySize=auto;html=1;exitX=1;exitY=0.75;exitDx=0;exitDy=0;entryX=0.25;entryY=0;entryDx=0;entryDy=0;fontSize=11;strokeWidth=1;horizontal=1;verticalAlign=middle;edgeStyle=orthogonalEdgeStyle;" parent="1" source="D48NL7E5U6qCPE2b7N9N-24" target="D48NL7E5U6qCPE2b7N9N-19" edge="1">
          <mxGeometry x="-0.2258" relative="1" as="geometry">
            <mxPoint as="offset" />
          </mxGeometry>
        </mxCell>
        <mxCell id="D48NL7E5U6qCPE2b7N9N-39" value="SongInfo" style="rounded=0;orthogonalLoop=1;jettySize=auto;html=1;exitX=0.25;exitY=0;exitDx=0;exitDy=0;entryX=0.75;entryY=1;entryDx=0;entryDy=0;fontSize=11;strokeWidth=1;" parent="1" source="D48NL7E5U6qCPE2b7N9N-24" target="D48NL7E5U6qCPE2b7N9N-36" edge="1">
          <mxGeometry x="0.6" relative="1" as="geometry">
            <mxPoint as="offset" />
          </mxGeometry>
        </mxCell>
        <mxCell id="mgYeFxRfYutmLQYsRixM-21" value="URI" style="rounded=0;orthogonalLoop=1;jettySize=auto;html=1;exitX=1;exitY=0;exitDx=0;exitDy=0;entryX=0.75;entryY=1;entryDx=0;entryDy=0;fontSize=11;strokeWidth=1;" parent="1" source="D48NL7E5U6qCPE2b7N9N-24" target="D48NL7E5U6qCPE2b7N9N-34" edge="1">
          <mxGeometry relative="1" as="geometry" />
        </mxCell>
        <mxCell id="D48NL7E5U6qCPE2b7N9N-24" value="&lt;div&gt;Music&lt;/div&gt;&lt;div&gt;Repository&lt;/div&gt;" style="rounded=0;whiteSpace=wrap;html=1;fontSize=17;" parent="1" vertex="1">
          <mxGeometry x="520" y="430" width="120" height="60" as="geometry" />
        </mxCell>
        <mxCell id="mgYeFxRfYutmLQYsRixM-7" value="SongInfo" style="edgeStyle=orthogonalEdgeStyle;rounded=0;orthogonalLoop=1;jettySize=auto;html=1;exitX=0.75;exitY=0;exitDx=0;exitDy=0;entryX=0.75;entryY=1;entryDx=0;entryDy=0;fontSize=11;strokeWidth=1;" parent="1" source="D48NL7E5U6qCPE2b7N9N-34" target="mgYeFxRfYutmLQYsRixM-4" edge="1">
          <mxGeometry x="0.5714" relative="1" as="geometry">
            <mxPoint as="offset" />
          </mxGeometry>
        </mxCell>
        <mxCell id="mgYeFxRfYutmLQYsRixM-11" value="SessionInfo" style="edgeStyle=orthogonalEdgeStyle;rounded=0;orthogonalLoop=1;jettySize=auto;html=1;exitX=0;exitY=0.25;exitDx=0;exitDy=0;entryX=1;entryY=0.25;entryDx=0;entryDy=0;fontSize=11;strokeWidth=1;" parent="1" source="D48NL7E5U6qCPE2b7N9N-34" target="D48NL7E5U6qCPE2b7N9N-36" edge="1">
          <mxGeometry relative="1" as="geometry" />
        </mxCell>
        <mxCell id="mgYeFxRfYutmLQYsRixM-16" value="&lt;div style=&quot;font-size: 11px&quot;&gt;URI&lt;/div&gt;&lt;div style=&quot;font-size: 11px&quot;&gt;nextMediaPlayer&lt;/div&gt;&lt;div style=&quot;font-size: 11px&quot;&gt;(playControls)&lt;/div&gt;&lt;div style=&quot;font-size: 11px&quot;&gt;getCurrentPosition()&lt;/div&gt;" style="rounded=0;orthogonalLoop=1;jettySize=auto;html=1;exitX=1;exitY=0.75;exitDx=0;exitDy=0;entryX=0.75;entryY=1;entryDx=0;entryDy=0;fontSize=11;strokeWidth=1;edgeStyle=orthogonalEdgeStyle;" parent="1" source="D48NL7E5U6qCPE2b7N9N-34" target="mgYeFxRfYutmLQYsRixM-15" edge="1">
          <mxGeometry relative="1" as="geometry" />
        </mxCell>
        <mxCell id="mgYeFxRfYutmLQYsRixM-20" value="getNextUri()&lt;br&gt;editStats()" style="rounded=0;orthogonalLoop=1;jettySize=auto;html=1;exitX=0.25;exitY=1;exitDx=0;exitDy=0;entryX=0.75;entryY=0;entryDx=0;entryDy=0;fontSize=11;strokeWidth=1;" parent="1" source="D48NL7E5U6qCPE2b7N9N-34" target="D48NL7E5U6qCPE2b7N9N-24" edge="1">
          <mxGeometry relative="1" as="geometry" />
        </mxCell>
        <mxCell id="D48NL7E5U6qCPE2b7N9N-34" value="&lt;div&gt;MediaSession&lt;/div&gt;&lt;div&gt;Service&lt;br&gt;&lt;/div&gt;" style="rounded=0;whiteSpace=wrap;html=1;fontSize=17;" parent="1" vertex="1">
          <mxGeometry x="680" y="270" width="120" height="60" as="geometry" />
        </mxCell>
        <mxCell id="D48NL7E5U6qCPE2b7N9N-40" value="getInfo()&lt;br&gt;editInfo()&lt;br style=&quot;font-size: 11px&quot;&gt;delete()" style="rounded=0;orthogonalLoop=1;jettySize=auto;html=1;exitX=0.25;exitY=1;exitDx=0;exitDy=0;entryX=0;entryY=0;entryDx=0;entryDy=0;fontSize=11;strokeWidth=1;" parent="1" source="D48NL7E5U6qCPE2b7N9N-36" target="D48NL7E5U6qCPE2b7N9N-24" edge="1">
          <mxGeometry x="0.5613" y="-2" relative="1" as="geometry">
            <mxPoint as="offset" />
          </mxGeometry>
        </mxCell>
        <mxCell id="mgYeFxRfYutmLQYsRixM-3" value="SongInfo&lt;br style=&quot;font-size: 11px;&quot;&gt;SessionInfo" style="edgeStyle=orthogonalEdgeStyle;rounded=0;orthogonalLoop=1;jettySize=auto;html=1;exitX=0.75;exitY=0;exitDx=0;exitDy=0;entryX=0.75;entryY=1;entryDx=0;entryDy=0;fontSize=11;strokeWidth=1;" parent="1" source="D48NL7E5U6qCPE2b7N9N-36" target="mgYeFxRfYutmLQYsRixM-1" edge="1">
          <mxGeometry x="0.7143" relative="1" as="geometry">
            <mxPoint as="offset" />
          </mxGeometry>
        </mxCell>
        <mxCell id="mgYeFxRfYutmLQYsRixM-10" value="(playControls)" style="edgeStyle=orthogonalEdgeStyle;rounded=0;orthogonalLoop=1;jettySize=auto;html=1;exitX=1;exitY=0.75;exitDx=0;exitDy=0;entryX=0;entryY=0.75;entryDx=0;entryDy=0;fontSize=11;strokeWidth=1;" parent="1" source="D48NL7E5U6qCPE2b7N9N-36" target="D48NL7E5U6qCPE2b7N9N-34" edge="1">
          <mxGeometry relative="1" as="geometry" />
        </mxCell>
        <mxCell id="rS-Z2TYhQK7uxSjzsnKh-9" value="getApiInfo()" style="edgeStyle=orthogonalEdgeStyle;rounded=0;orthogonalLoop=1;jettySize=auto;html=1;exitX=0;exitY=0.25;exitDx=0;exitDy=0;entryX=0.25;entryY=0;entryDx=0;entryDy=0;fontSize=11;" parent="1" source="D48NL7E5U6qCPE2b7N9N-36" target="rS-Z2TYhQK7uxSjzsnKh-5" edge="1">
          <mxGeometry relative="1" as="geometry" />
        </mxCell>
        <mxCell id="D48NL7E5U6qCPE2b7N9N-36" value="&lt;div&gt;Activity&lt;/div&gt;&lt;div&gt;Mediacontroller&lt;/div&gt;&lt;div&gt;ViewModel&lt;br&gt;&lt;/div&gt;" style="rounded=0;whiteSpace=wrap;html=1;fontSize=17;" parent="1" vertex="1">
          <mxGeometry x="360" y="270" width="120" height="60" as="geometry" />
        </mxCell>
        <mxCell id="mgYeFxRfYutmLQYsRixM-2" value="(playControls)&lt;br style=&quot;font-size: 11px&quot;&gt;editInfo()&lt;br style=&quot;font-size: 11px&quot;&gt;editStats()&lt;br style=&quot;font-size: 11px&quot;&gt;getApiInfo()&lt;br&gt;delete()" style="rounded=0;orthogonalLoop=1;jettySize=auto;html=1;exitX=0.25;exitY=1;exitDx=0;exitDy=0;entryX=0.25;entryY=0;entryDx=0;entryDy=0;fontSize=11;strokeWidth=1;elbow=vertical;" parent="1" source="mgYeFxRfYutmLQYsRixM-1" target="D48NL7E5U6qCPE2b7N9N-36" edge="1">
          <mxGeometry x="0.2857" relative="1" as="geometry">
            <mxPoint as="offset" />
          </mxGeometry>
        </mxCell>
        <mxCell id="mgYeFxRfYutmLQYsRixM-1" value="&lt;div&gt;Player&lt;/div&gt;&lt;div&gt;Activity&lt;br&gt;&lt;/div&gt;" style="rounded=0;whiteSpace=wrap;html=1;fontSize=17;" parent="1" vertex="1">
          <mxGeometry x="360" y="70" width="120" height="60" as="geometry" />
        </mxCell>
        <mxCell id="mgYeFxRfYutmLQYsRixM-6" value="(playControls)" style="edgeStyle=orthogonalEdgeStyle;rounded=0;orthogonalLoop=1;jettySize=auto;html=1;exitX=0.25;exitY=1;exitDx=0;exitDy=0;entryX=0.25;entryY=0;entryDx=0;entryDy=0;fontSize=11;strokeWidth=1;" parent="1" source="mgYeFxRfYutmLQYsRixM-4" target="D48NL7E5U6qCPE2b7N9N-34" edge="1">
          <mxGeometry x="0.5714" relative="1" as="geometry">
            <mxPoint as="offset" />
          </mxGeometry>
        </mxCell>
        <mxCell id="mgYeFxRfYutmLQYsRixM-4" value="Notification" style="rounded=0;whiteSpace=wrap;html=1;fontSize=17;" parent="1" vertex="1">
          <mxGeometry x="680" y="70" width="120" height="60" as="geometry" />
        </mxCell>
        <mxCell id="mgYeFxRfYutmLQYsRixM-17" value="CurrentPosition" style="rounded=0;orthogonalLoop=1;jettySize=auto;html=1;exitX=0.25;exitY=1;exitDx=0;exitDy=0;entryX=1;entryY=0.25;entryDx=0;entryDy=0;fontSize=11;strokeWidth=1;edgeStyle=orthogonalEdgeStyle;" parent="1" source="mgYeFxRfYutmLQYsRixM-15" target="D48NL7E5U6qCPE2b7N9N-34" edge="1">
          <mxGeometry relative="1" as="geometry" />
        </mxCell>
        <mxCell id="mgYeFxRfYutmLQYsRixM-15" value="MediaPlayer" style="rounded=0;whiteSpace=wrap;html=1;fontSize=17;" parent="1" vertex="1">
          <mxGeometry x="880" y="70" width="120" height="60" as="geometry" />
        </mxCell>
        <mxCell id="rS-Z2TYhQK7uxSjzsnKh-6" value="SongInfo" style="edgeStyle=orthogonalEdgeStyle;rounded=0;orthogonalLoop=1;jettySize=auto;html=1;exitX=0.75;exitY=0;exitDx=0;exitDy=0;entryX=0.75;entryY=1;entryDx=0;entryDy=0;fontSize=11;" parent="1" source="rS-Z2TYhQK7uxSjzsnKh-4" target="rS-Z2TYhQK7uxSjzsnKh-5" edge="1">
          <mxGeometry relative="1" as="geometry" />
        </mxCell>
        <mxCell id="rS-Z2TYhQK7uxSjzsnKh-4" value="API" style="rounded=0;whiteSpace=wrap;html=1;fontSize=17;" parent="1" vertex="1">
          <mxGeometry x="190" y="670" width="120" height="60" as="geometry" />
        </mxCell>
        <mxCell id="rS-Z2TYhQK7uxSjzsnKh-7" value="getInfo()" style="edgeStyle=orthogonalEdgeStyle;rounded=0;orthogonalLoop=1;jettySize=auto;html=1;exitX=0.25;exitY=1;exitDx=0;exitDy=0;entryX=0.25;entryY=0;entryDx=0;entryDy=0;" parent="1" source="rS-Z2TYhQK7uxSjzsnKh-5" target="rS-Z2TYhQK7uxSjzsnKh-4" edge="1">
          <mxGeometry relative="1" as="geometry" />
        </mxCell>
        <mxCell id="rS-Z2TYhQK7uxSjzsnKh-8" value="SongInfo" style="edgeStyle=orthogonalEdgeStyle;rounded=0;orthogonalLoop=1;jettySize=auto;html=1;exitX=0.75;exitY=0;exitDx=0;exitDy=0;entryX=0;entryY=0.75;entryDx=0;entryDy=0;fontSize=11;" parent="1" source="rS-Z2TYhQK7uxSjzsnKh-5" target="D48NL7E5U6qCPE2b7N9N-36" edge="1">
          <mxGeometry relative="1" as="geometry" />
        </mxCell>
        <mxCell id="rS-Z2TYhQK7uxSjzsnKh-5" value="Tags&lt;br&gt;Repository" style="rounded=0;whiteSpace=wrap;html=1;fontSize=17;" parent="1" vertex="1">
          <mxGeometry x="190" y="470" width="120" height="60" as="geometry" />
        </mxCell>
      </root>
    </mxGraphModel>
  </diagram>
</mxfile>
